<?xml version="1.0" encoding="utf-8"?>
<!-- Generator: Adobe Illustrator 23.0.2, SVG Export Plug-In . SVG Version: 6.00 Build 0)  -->
<svg version="1.1" id="Capa_1" xmlns="http://www.w3.org/2000/svg" xmlns:xlink="http://www.w3.org/1999/xlink" x="0px" y="0px"
	 viewBox="0 0 512 512" style="enable-background:new 0 0 512 512;" xml:space="preserve">
<style type="text/css">
	.st0{fill:#FFFFFF;}
</style>
<g>
	<g>
		<path class="st0" d="M407,0H105C47.1,0,0,47.1,0,105v302c0,57.9,47.1,105,105,105h302c57.9,0,105-47.1,105-105V105
			C512,47.1,464.9,0,407,0z M482,407c0,41.4-33.6,75-75,75H105c-41.4,0-75-33.6-75-75V105c0-41.4,33.6-75,75-75h302
			c41.4,0,75,33.6,75,75V407z"/>
	</g>
</g>
<g>
	<g>
		<path class="st0" d="M305.6,123.5c-1.7-6.4-5.9-11.8-11.6-15.2c-11.9-6.9-27.3-2.8-34.1,9.2l-3.8,6.7l-3.8-6.7
			c-6.9-11.9-22.2-16-34.2-9.2h0c-11.9,6.9-16,22.2-9.1,34.2l18.3,31.7L159.7,291h-49.2c-13.8,0-25,11.2-25,25s11.2,25,25,25h189.9
			l-28.9-50h-54.1l85.7-148.5C306.5,136.7,307.4,130,305.6,123.5z"/>
	</g>
</g>
<g>
	<g>
		<path class="st0" d="M401.5,291h-49.2l-55.9-96.8l-28.9,50l86.8,150.3c3.3,5.8,8.7,9.9,15.2,11.6c2.2,0.6,4.3,0.9,6.5,0.9
			c4.3,0,8.6-1.1,12.5-3.4c11.9-6.9,16-22.2,9.1-34.1L381.2,341h20.3c13.8,0,25-11.2,25-25S415.3,291,401.5,291z"/>
	</g>
</g>
<g>
	<g>
		<path class="st0" d="M119.3,361l-4.9,8.5c-6.9,11.9-2.8,27.3,9.2,34.1c3.9,2.3,8.2,3.3,12.5,3.3c8.6,0,17.1-4.5,21.7-12.5L177,361
			H119.3z"/>
	</g>
</g>
</svg>
