<?xml version="1.0" encoding="utf-8"?>
<!-- Generator: Adobe Illustrator 23.0.2, SVG Export Plug-In . SVG Version: 6.00 Build 0)  -->
<svg version="1.1" id="Capa_1" xmlns="http://www.w3.org/2000/svg" xmlns:xlink="http://www.w3.org/1999/xlink" x="0px" y="0px"
	 viewBox="0 0 225 225" style="enable-background:new 0 0 225 225;" xml:space="preserve">
<style type="text/css">
	.st0{fill:#FFFFFF;}
</style>
<path class="st0" d="M201.5,91L48,3.3C44.3,1.1,40,0,35.7,0c-4.4,0-8.6,1.2-12.4,3.3C15.7,7.7,11,15.9,11,24.7v175.5
	c0,8.8,4.7,17,12.3,21.4c3.8,2.2,8.1,3.3,12.4,3.3c4.3,0,8.5-1.1,12.3-3.3L201.5,134c7.7-4.4,12.5-12.6,12.5-21.5
	S209.2,95.4,201.5,91z M135,70.3l-21.1,29.4L63.5,29.4L135,70.3z M34.8,209.9c-1.4-0.1-2.7-0.5-3.9-1.2c-3-1.7-4.8-5-4.8-8.4V24.7
	c0-3.5,1.9-6.7,4.8-8.4c1.2-0.7,2.5-1.1,3.9-1.3l69.9,97.4L34.8,209.9z M63.5,195.6l50.4-70.2l21.1,29.4L63.5,195.6z M194.1,120.9
	l-46,26.3l-24.9-34.7l24.9-34.7l46,26.3c3,1.7,4.9,5,4.9,8.4S197.1,119.2,194.1,120.9z"/>
</svg>
