<?xml version="1.0" encoding="utf-8"?>
<!-- Generator: Adobe Illustrator 23.0.2, SVG Export Plug-In . SVG Version: 6.00 Build 0)  -->
<svg version="1.1" id="Layer_1" xmlns="http://www.w3.org/2000/svg" xmlns:xlink="http://www.w3.org/1999/xlink" x="0px" y="0px"
	 viewBox="0 0 447 447" style="enable-background:new 0 0 447 447;" xml:space="preserve">
<style type="text/css">
	.st0{fill:#FFFFFF;}
</style>
<path class="st0" d="M231.5,446.7c34.2-4.9,64.1-40.5,83-93.2c-27.3-6.1-55.1-9.4-83-9.8V446.7z"/>
<path class="st0" d="M286.1,438.4c2-0.6,4-1.2,6-1.8c1.7-0.5,3.3-1.1,5-1.7c2-0.7,3.9-1.4,5.9-2.1c1.7-0.6,3.3-1.3,5-2
	c1.9-0.8,3.8-1.6,5.7-2.4c1.6-0.7,3.3-1.5,4.9-2.2c1.8-0.9,3.7-1.8,5.5-2.7c1.6-0.8,3.2-1.6,4.8-2.5c1.8-1,3.6-1.9,5.3-2.9
	c1.6-0.9,3.1-1.8,4.7-2.8c1.7-1.1,3.5-2.1,5.2-3.2c1.5-1,3.1-2,4.6-3c1.7-1.1,3.3-2.3,5-3.5c1.5-1.1,3-2.1,4.4-3.2
	c1.6-1.2,3.2-2.5,4.8-3.8c1.4-1.1,2.8-2.3,4.2-3.4c1.6-1.3,3.1-2.7,4.7-4.1c1.4-1.2,2.7-2.4,4-3.6c1.5-1.4,3-2.9,4.5-4.4
	c1.3-1.3,2.6-2.5,3.9-3.8c0.2-0.2,0.5-0.5,0.7-0.8c-17.4-9-35.8-16.1-54.7-21.1c-9.9,31.4-27.4,59.9-51.1,82.9
	c0.6-0.2,1.3-0.3,1.9-0.5C282.8,439.4,284.4,438.9,286.1,438.4z"/>
<path class="st0" d="M447,231.7h-95.8c-0.4,37.4-5.8,74.6-16.1,110.5c21.1,5.6,41.4,13.7,60.6,24.1C427.2,328.3,445.3,281,447,231.7
	z"/>
<path class="st0" d="M231.5,215.7h103.7c-0.4-36.1-5.7-71.9-15.7-106.6c-28.9,6.6-58.4,10.1-88,10.5V215.7z"/>
<path class="st0" d="M231.5,0.6v103c27.9-0.4,55.7-3.7,83-9.8C295.6,41.2,265.7,5.5,231.5,0.6z"/>
<path class="st0" d="M231.5,327.8c29.6,0.4,59.1,3.9,88,10.5c10-34.7,15.3-70.5,15.7-106.6H231.5V327.8z"/>
<path class="st0" d="M395.7,81c-19.2,10.4-39.5,18.5-60.6,24.1c10.3,35.9,15.8,73.1,16.1,110.5H447C445.3,166.4,427.2,119,395.7,81z
	"/>
<path class="st0" d="M384.9,68.9c-0.2-0.2-0.5-0.5-0.7-0.7c-1.3-1.3-2.6-2.6-3.9-3.8c-1.5-1.5-3-2.9-4.5-4.4c-1.3-1.2-2.7-2.4-4-3.6
	c-1.5-1.4-3.1-2.8-4.7-4.1c-1.4-1.2-2.8-2.3-4.2-3.4c-1.6-1.3-3.2-2.6-4.9-3.8c-1.4-1.1-2.9-2.1-4.4-3.2c-1.7-1.2-3.3-2.4-5-3.5
	c-1.5-1-3-2-4.5-3c-1.7-1.1-3.5-2.2-5.2-3.3c-1.5-0.9-3.1-1.8-4.7-2.7c-1.8-1-3.6-2-5.4-3c-1.6-0.8-3.2-1.7-4.8-2.5
	c-1.8-0.9-3.7-1.8-5.6-2.7c-1.6-0.8-3.2-1.5-4.9-2.2c-1.9-0.8-3.8-1.6-5.7-2.4c-1.6-0.7-3.3-1.3-4.9-2c-1.9-0.7-3.9-1.4-5.9-2.1
	c-1.7-0.6-3.3-1.2-5-1.7c-2-0.6-4-1.2-6-1.8c-1.7-0.5-3.3-1-5-1.4c-0.6-0.2-1.3-0.3-1.9-0.5c23.6,23,41.2,51.5,51.1,82.9
	C349.1,85,367.5,77.9,384.9,68.9z"/>
<path class="st0" d="M0,215.7h95.8c0.4-37.4,5.8-74.6,16.1-110.5C90.8,99.5,70.5,91.4,51.3,81C19.8,119,1.7,166.4,0,215.7z"/>
<path class="st0" d="M215.5,446.7v-103c-27.9,0.4-55.7,3.7-83,9.8C151.4,406.2,181.3,441.9,215.5,446.7z"/>
<path class="st0" d="M215.5,231.7H111.8c0.4,36.1,5.7,71.9,15.7,106.6c28.9-6.6,58.4-10.1,88-10.5V231.7z"/>
<path class="st0" d="M215.5,0.6c-34.2,4.9-64.2,40.5-83,93.2c27.3,6.1,55.1,9.4,83,9.8V0.6z"/>
<path class="st0" d="M215.5,119.6c-29.6-0.4-59.1-3.9-88-10.5c-10,34.7-15.3,70.5-15.7,106.6h103.7V119.6z"/>
<path class="st0" d="M167.9,7.1c-0.6,0.2-1.3,0.3-1.9,0.5c-1.7,0.5-3.4,1-5,1.4c-2,0.6-4,1.2-6,1.8c-1.7,0.6-3.4,1.1-5,1.7
	c-2,0.7-3.9,1.4-5.8,2.1c-1.7,0.6-3.3,1.3-5,2c-1.9,0.8-3.8,1.6-5.7,2.4c-1.6,0.7-3.3,1.5-4.9,2.2c-1.8,0.9-3.7,1.8-5.5,2.7
	c-1.6,0.8-3.2,1.7-4.8,2.5c-1.8,1-3.6,1.9-5.3,2.9c-1.6,0.9-3.2,1.8-4.7,2.7c-1.7,1-3.5,2.1-5.2,3.2c-1.5,1-3.1,2-4.6,3
	c-1.7,1.1-3.3,2.3-5,3.5c-1.5,1.1-3,2.1-4.4,3.2c-1.6,1.2-3.2,2.5-4.8,3.8c-1.4,1.1-2.9,2.3-4.2,3.4c-1.6,1.3-3.1,2.7-4.7,4
	c-1.4,1.2-2.7,2.4-4.1,3.7c-1.5,1.4-3,2.9-4.5,4.3c-1.3,1.3-2.6,2.5-3.9,3.8c-0.2,0.2-0.5,0.5-0.7,0.8c17.4,9,35.8,16.1,54.7,21.1
	C126.7,58.5,144.2,30,167.9,7.1z"/>
<path class="st0" d="M66.6,383c1.5,1.5,3,2.9,4.5,4.4c1.3,1.2,2.7,2.4,4.1,3.6c1.5,1.4,3.1,2.8,4.7,4.1c1.4,1.2,2.8,2.3,4.2,3.4
	c1.6,1.3,3.2,2.6,4.9,3.8c1.4,1.1,2.9,2.1,4.4,3.2c1.7,1.2,3.4,2.4,5.1,3.5c1.5,1,3,2,4.5,3c1.7,1.1,3.5,2.2,5.2,3.2
	c1.5,0.9,3.1,1.8,4.7,2.7c1.8,1,3.6,2,5.4,3c1.6,0.8,3.2,1.7,4.8,2.5c1.8,0.9,3.7,1.8,5.6,2.7c1.6,0.8,3.2,1.5,4.9,2.2
	c1.9,0.8,3.8,1.6,5.7,2.4c1.6,0.7,3.3,1.3,4.9,2c1.9,0.7,3.9,1.4,5.9,2.1c1.7,0.6,3.3,1.2,5,1.7c2,0.6,4,1.2,6,1.8
	c1.7,0.5,3.3,1,5,1.4c0.6,0.2,1.3,0.3,2,0.5c-23.6-23-41.2-51.5-51.1-82.9c-19,5-37.3,12.1-54.7,21.1c0.2,0.2,0.5,0.5,0.7,0.7
	C64,380.5,65.3,381.7,66.6,383z"/>
<path class="st0" d="M51.3,366.3c19.2-10.4,39.5-18.5,60.6-24.1c-10.3-35.9-15.8-73.1-16.1-110.5H0C1.7,281,19.8,328.3,51.3,366.3z"
	/>
</svg>
